<svg fill="#000000" xmlns="http://www.w3.org/2000/svg"  viewBox="0 0 26 26" width="20px" height="20px"><path d="M 12.65625 0.0625 C 11.5625 0.0859375 10.636719 0.257813 9.8125 0.40625 C 9.011719 0.605469 8.292969 0.789063 7.59375 1.1875 C 7.195313 1.488281 6.8125 1.804688 6.3125 2.40625 C 5.8125 2.90625 5.394531 3.398438 5.09375 3.5 C 4.195313 4.101563 3.605469 4.90625 3.40625 5.90625 C 3.007813 7.507813 3.085938 9.59375 3.6875 12.09375 C 3.789063 12.394531 4.011719 12.789063 4.3125 13.1875 C 4.710938 13.6875 4.894531 13.988281 5.09375 14.1875 C 4.992188 14.1875 5.011719 14.3125 4.8125 14.3125 L 4.5 14.40625 C 4.199219 14.507813 4.09375 14.699219 4.09375 15 L 4.1875 15.40625 L 4.3125 15.6875 L 4.09375 15.8125 L 4.09375 16 C 4.195313 16.5 4.292969 16.792969 4.59375 17.09375 C 4.695313 17.394531 4.898438 17.59375 5 17.59375 L 5.40625 17.59375 C 5.507813 17.492188 5.6875 17.40625 5.6875 17.40625 C 5.886719 17.207031 6.113281 17.210938 6.3125 17.3125 L 6.59375 17.40625 L 7 17.6875 C 7.199219 17.6875 7.300781 17.601563 7.5 17.5 L 7.6875 17.3125 L 7.40625 17.1875 L 7.09375 17.1875 C 6.792969 17.1875 6.6875 17.101563 6.6875 17 L 7.3125 16.5 L 7.90625 16 C 8.304688 15.800781 8.8125 15.59375 9.3125 15.59375 C 9.613281 15.695313 9.6875 15.800781 9.6875 16 C 9.488281 16.101563 9.398438 16.292969 9.5 16.59375 L 9.59375 17 C 9.695313 17.101563 9.6875 17.210938 9.6875 17.3125 C 9.386719 17.210938 9.398438 17.398438 9.5 18 C 9.601563 18.300781 9.707031 18.695313 9.90625 19.09375 C 9.90625 20.195313 9.988281 22.292969 10.1875 25.09375 L 10.40625 25.3125 L 10.6875 25.5 C 10.988281 25.699219 11.210938 25.699219 11.3125 25.5 C 11.414063 25.300781 11.40625 24.105469 11.40625 21.90625 C 11.40625 19.707031 11.3125 18.605469 11.3125 18.40625 L 11.09375 18.1875 C 11.292969 18.085938 11.488281 18.105469 11.6875 17.90625 C 11.585938 18.90625 11.800781 21.613281 12 25.8125 C 12 25.914063 12.105469 25.90625 12.40625 25.90625 C 12.707031 25.90625 12.8125 25.898438 12.8125 26 C 13.011719 25.898438 13.085938 24.707031 13.1875 22.40625 L 13.1875 19.6875 C 13.1875 18.886719 13.195313 18.300781 13.09375 18 L 13.5 18 C 13.398438 19.300781 13.40625 20.914063 13.40625 22.8125 C 13.304688 24.914063 13.398438 26.007813 13.5 25.90625 L 14 25.90625 C 14.300781 26.007813 14.398438 24.894531 14.5 22.59375 C 14.601563 21.695313 14.59375 20.8125 14.59375 19.8125 C 14.59375 18.914063 14.601563 18.1875 14.5 17.6875 L 15 17.59375 C 15.398438 17.792969 15.59375 18 15.59375 18 L 15.59375 18.09375 L 15.1875 18.1875 L 15 18.3125 C 15 18.414063 15.007813 18.792969 14.90625 19.59375 L 14.8125 22.3125 C 14.710938 24.8125 14.804688 26.007813 14.90625 25.90625 L 16 25.6875 C 16.101563 25.585938 16.210938 24.800781 16.3125 23 C 16.414063 21.5 16.40625 20.195313 16.40625 19.09375 C 16.707031 18.792969 16.894531 18.300781 17.09375 17.5 L 17.1875 16.6875 C 17.1875 16.488281 17.195313 16.3125 17.09375 16.3125 L 17 16.1875 L 17.09375 16 L 17.6875 15.8125 L 18.3125 15.59375 C 18.8125 15.492188 19.199219 15.699219 19.5 16 C 19.601563 16.199219 19.695313 16.386719 19.59375 16.6875 L 19.5 16.90625 C 19.5 17.007813 19.507813 17 19.40625 17 C 19.304688 17.300781 19.386719 17.5 19.6875 17.5 C 19.988281 17.601563 20.199219 17.605469 20.5 17.40625 C 20.601563 17.207031 20.914063 17.011719 21.3125 16.8125 C 21.613281 16.613281 21.804688 16.292969 21.90625 16.09375 L 22 15.40625 C 22 15.105469 21.886719 15.007813 21.6875 14.90625 C 21.585938 14.90625 21.59375 14.8125 21.59375 14.8125 L 21.59375 14.59375 C 21.695313 14.394531 21.789063 14.199219 21.6875 14 L 22.09375 12.09375 C 22.394531 11.195313 22.492188 10.507813 22.59375 9.90625 C 22.992188 8.105469 22.914063 6.710938 22.3125 5.8125 C 22.113281 5.3125 21.710938 4.695313 21.3125 4.09375 C 20.8125 3.394531 20.199219 2.8125 19.5 2.3125 C 17.800781 0.914063 15.914063 0.195313 13.8125 0.09375 C 13.414063 0.0703125 13.019531 0.0546875 12.65625 0.0625 Z M 4.78125 8.8125 C 4.820313 8.765625 5.03125 8.851563 5.40625 9 C 6.007813 9.199219 6.5 9.511719 7 9.8125 C 7.300781 9.914063 8.199219 10.414063 9.5 11.3125 C 9.800781 11.511719 10.3125 11.707031 10.8125 11.90625 L 12.1875 12.5 C 12.289063 12.601563 12.292969 12.585938 12.09375 12.6875 C 11.992188 12.789063 11.707031 12.898438 11.40625 13 L 10.59375 13.3125 L 10 13.3125 C 9.898438 13.414063 9.6875 13.414063 9.1875 13.3125 L 7.90625 13.09375 C 6.605469 12.894531 5.90625 12.695313 5.90625 12.59375 C 5.605469 12.492188 5.386719 12.300781 5.1875 12 C 4.988281 11.699219 4.898438 11.511719 5 11.3125 C 4.699219 10.914063 4.59375 10.511719 4.59375 9.8125 L 4.6875 9.09375 L 4.8125 8.90625 C 4.789063 8.855469 4.769531 8.828125 4.78125 8.8125 Z M 21.28125 8.875 C 21.351563 8.867188 21.40625 8.925781 21.40625 9 C 21.507813 9 21.5 9.085938 21.5 9.1875 L 21.5 9.8125 L 21.59375 9.8125 C 21.492188 10.414063 21.386719 10.914063 21.1875 11.3125 C 21.085938 11.710938 21.011719 11.992188 20.8125 12.09375 C 20.710938 12.292969 20.511719 12.492188 20.3125 12.59375 C 20.210938 12.792969 19.511719 12.992188 18.3125 13.09375 L 16.90625 13.3125 C 16.507813 13.414063 16.195313 13.414063 16.09375 13.3125 C 15.992188 13.414063 15.800781 13.289063 15.5 13.1875 L 14.59375 13 C 13.792969 12.800781 13.511719 12.601563 13.8125 12.5 L 15.3125 12 C 15.914063 11.800781 16.292969 11.511719 16.59375 11.3125 L 17.90625 10.5 C 18.507813 10.101563 18.894531 9.914063 19.09375 9.8125 C 19.492188 9.613281 20.113281 9.386719 20.8125 9.1875 C 20.8125 8.988281 20.988281 8.90625 21.1875 8.90625 C 21.210938 8.882813 21.257813 8.878906 21.28125 8.875 Z M 12.6875 13 L 12.6875 14.8125 L 12.90625 14.8125 L 12.3125 15.6875 L 12.1875 16.3125 L 12.09375 16.40625 L 11.8125 16.1875 L 11.59375 15.8125 L 11.40625 15.40625 L 11.40625 15.09375 L 11.5 14.90625 L 11.6875 14.6875 L 11.8125 14.40625 L 12.09375 13.6875 L 12.09375 13.59375 L 12.1875 13.5 L 12.3125 13.40625 L 12.5 13.3125 L 12.59375 13.09375 Z M 13.1875 13 L 13.3125 13.1875 L 13.5 13.3125 L 13.6875 13.5 L 13.6875 13.59375 L 14 14.40625 L 14.40625 14.8125 L 14.5 15 C 14.601563 15.101563 14.601563 15.304688 14.5 15.40625 L 14.3125 15.8125 L 14.09375 16.1875 L 13.90625 16.40625 L 13.8125 16.5 L 13.6875 15.59375 L 13.09375 14.6875 L 13.09375 13.3125 Z"/></svg>